<svg width="49" height="43" viewBox="0 0 49 43" fill="none" xmlns="http://www.w3.org/2000/svg">
<path d="M15.8763 28.9977L15.4667 37.1251L7.91589 42.8619L0 28.9073L16.5186 0.138092L24.2525 5.44674L24.5075 14.0519L24.4344 14.0939L15.8763 28.9977Z" fill="#28B446"/>
<path d="M32.4798 0.138092L48.9996 28.9073L40.0913 33.4128L33.0367 28.9506V28.9073L24.5071 14.0519L16.5182 0.138092H32.4798Z" fill="#FFD837"/>
<path d="M49.0001 28.9073L41.0892 42.7715L7.91602 42.8619L15.8764 28.9976L33.0372 28.9506L49.0001 28.9073Z" fill="#518EF8"/>
<path d="M7.91602 42.8619L21.7964 28.9814L15.8764 28.9977L7.91602 42.8619Z" fill="#3A5BBC"/>
<path d="M49 28.9073L30.8892 25.1664L33.0371 28.9506L49 28.9073Z" fill="#FBBB00"/>
</svg>
