<svg width="49" height="45" viewBox="0 0 49 45" fill="none" xmlns="http://www.w3.org/2000/svg">
<path d="M9.62512 34.6625V30.725L16.2752 34.575L24.5002 26.875V44.375L9.62512 34.6625Z" fill="#0093EB"/>
<path d="M1.66235 24.25L10.3249 16.375L24.4999 25.125L16.2749 32.825L1.66235 24.25Z" fill="#0093EB"/>
<path d="M10.325 16.375L0 8.49995L14.875 0.625015L25.375 7.62493L10.325 16.375Z" fill="#0093EB"/>
<path d="M39.375 34.75L24.5 44.375V26.875L32.9875 34.225L39.375 30.2V34.75Z" fill="#0093EB"/>
<path d="M32.9875 32.475L24.5 25.125L38.7625 16.025L47.3375 23.375L32.9875 32.475Z" fill="#0093EB"/>
<path d="M38.7623 16.025L25.3748 7.62493L35.8747 0.625015L48.9997 8.49995L38.7623 16.025Z" fill="#0093EB"/>
</svg>
