<svg width="24" height="24" viewBox="0 0 24 24" fill="none" xmlns="http://www.w3.org/2000/svg">
<path fill-rule="evenodd" clip-rule="evenodd" d="M12 22C17.5228 22 22 17.5228 22 12C22 6.47715 17.5228 2 12 2C6.47715 2 2 6.47715 2 12C2 17.5228 6.47715 22 12 22ZM16.71 7.55635C16.7905 7.38651 16.6135 7.20953 16.4437 7.28998L11.5233 9.62068C10.6884 10.0161 10.0161 10.6884 9.62068 11.5233L7.28998 16.4437C7.20953 16.6135 7.38651 16.7905 7.55635 16.71L12.4767 14.3793C13.3116 13.9838 13.9839 13.3116 14.3793 12.4767L16.71 7.55635Z" fill="#000119"/>
</svg>
