<svg width="20" height="20" viewBox="0 0 20 20" fill="none" xmlns="http://www.w3.org/2000/svg">
<path fill-rule="evenodd" clip-rule="evenodd" d="M11.8993 1.72301C11.4511 -0.574336 8.16424 -0.574336 7.71605 1.72301C7.44332 3.12098 5.90236 3.86307 4.63934 3.20467C2.56376 2.12271 0.514423 4.6925 2.03112 6.47528C2.95405 7.56012 2.57346 9.22758 1.27124 9.80455C-0.868779 10.7527 -0.137378 13.9572 2.2021 13.8829C3.6257 13.8377 4.69208 15.1749 4.33125 16.5528C3.73827 18.8171 6.69965 20.2432 8.10024 18.3678C8.95251 17.2267 10.6629 17.2267 11.5151 18.3678C12.9157 20.2432 15.8771 18.8171 15.2841 16.5528C14.9233 15.1749 15.9897 13.8377 17.4133 13.8829C19.7527 13.9572 20.4841 10.7527 18.3441 9.80455C17.0419 9.22758 16.6613 7.56012 17.5842 6.47528C19.1009 4.6925 17.0516 2.12271 14.976 3.20467C13.713 3.86307 12.172 3.12098 11.8993 1.72301ZM9.80768 13.0016C11.4645 13.0016 12.8077 11.6584 12.8077 10.0016C12.8077 8.34472 11.4645 7.00157 9.80768 7.00157C8.15083 7.00157 6.80768 8.34472 6.80768 10.0016C6.80768 11.6584 8.15083 13.0016 9.80768 13.0016Z" fill="#E2E2E2"/>
</svg>
