<svg width="24" height="24" viewBox="0 0 24 24" fill="none" xmlns="http://www.w3.org/2000/svg">
<path fill-rule="evenodd" clip-rule="evenodd" d="M11.1 3C11.1 2.44772 10.6523 2 10.1 2H7C5.89543 2 5 2.89543 5 4V20C5 21.1046 5.89543 22 7 22H17C18.1046 22 19 21.1046 19 20V10.9C19 10.3477 18.5523 9.9 18 9.9H14C12.3984 9.9 11.1 8.60163 11.1 7V3ZM9.5 13.1C9.00294 13.1 8.6 13.5029 8.6 14C8.6 14.4971 9.00294 14.9 9.5 14.9H12C12.4971 14.9 12.9 14.4971 12.9 14C12.9 13.5029 12.4971 13.1 12 13.1H9.5ZM9.5 16.6C9.00294 16.6 8.6 17.0029 8.6 17.5C8.6 17.9971 9.00294 18.4 9.5 18.4H14.5C14.9971 18.4 15.4 17.9971 15.4 17.5C15.4 17.0029 14.9971 16.6 14.5 16.6H9.5Z" fill="#E2E2E2"/>
<path d="M16.8929 8.1C17.3383 8.1 17.5614 7.56143 17.2464 7.24645L13.7536 3.75355C13.4386 3.43857 12.9 3.66165 12.9 4.10711V7C12.9 7.60751 13.3925 8.1 14 8.1H16.8929Z" fill="#E2E2E2"/>
</svg>
