<svg width="24" height="24" viewBox="0 0 24 24" fill="none" xmlns="http://www.w3.org/2000/svg">
<path d="M9 5C9 4.44771 8.55228 4 8 4C7.44772 4 7 4.44771 7 5H9ZM15 19C15 19.5523 15.4477 20 16 20C16.5523 20 17 19.5523 17 19H15ZM7 5L7 14H9L9 5H7ZM8 15C9.10457 15 10 15.8954 10 17H12C12 14.7909 10.2091 13 8 13L8 15ZM10 17C10 18.1046 9.10457 19 8 19V21C10.2091 21 12 19.2091 12 17H10ZM8 19C6.89543 19 6 18.1046 6 17H4C4 19.2091 5.79086 21 8 21V19ZM6 17C6 15.8954 6.89543 15 8 15L8 13C5.79086 13 4 14.7909 4 17H6ZM17 19V10H15L15 19H17ZM16 11C18.2091 11 20 9.20914 20 7H18C18 8.10457 17.1046 9 16 9V11ZM20 7C20 4.79086 18.2091 3 16 3V5C17.1046 5 18 5.89543 18 7H20ZM16 3C13.7909 3 12 4.79086 12 7H14C14 5.89543 14.8954 5 16 5V3ZM12 7C12 9.20914 13.7909 11 16 11V9C14.8954 9 14 8.10457 14 7H12Z" fill="white"/>
</svg>
